<svg xmlns="http://www.w3.org/2000/svg" width="90.125" height="25.523" viewBox="0 0 90.125 25.523">
  <g id="グループ_5" data-name="グループ 5" transform="translate(-378.006 -169.523)">
    <path id="パス_13" data-name="パス 13" d="M399.15,177.006c-.713-2.025-8.295-2.06-8.295-2.06.678-2.955.7-5.048-.106-5.38-.959-.388-2.813,1.807-4.715,5.332-4.583.224-8.029,1.211-8.029,2.392,0,.981,2.4,1.829,5.852,2.217-.056.138-5.742,12.79-2.326,12.79s7.65-11.868,7.913-12.6a33.536,33.536,0,0,0,4.172-.385c-.625,1.28-4.219,13.215-1.2,13.734S400.135,179.821,399.15,177.006Z" fill="#ffffff" style="isolation: isolate"/>
    <path id="パス_14" data-name="パス 14" d="M900.255,182.352c-1.219-.269-2.751,2.593-3.42,6.388s-.236,7.079.982,7.345,2.755-2.592,3.423-6.385S901.471,182.616,900.255,182.352Z" transform="translate(-469.656 -11.605)" fill="#ffffff" style="isolation: isolate"/>
    <path id="パス_15" data-name="パス 15" d="M977.2,180.057c-1.394-.21-3.334,5.113-4.324,11.885s-.663,12.425.73,12.634,3.329-5.109,4.325-11.882S978.59,180.269,977.2,180.057Z" transform="translate(-538.294 -9.537)" fill="#ffffff" style="isolation: isolate"/>
    <path id="パス_16" data-name="パス 16" d="M649.569,282.255c-5.214,0-9.439.866-9.439,1.935s4.225,1.931,9.439,1.931,9.439-.861,9.439-1.931S654.786,282.255,649.569,282.255Z" transform="translate(-237.425 -102.11)" fill="#ffffff" style="isolation: isolate"/>
    <path id="パス_17" data-name="パス 17" d="M1093.7,193.432c-1.235-.255-3.329,4.216-4.685,9.986s-1.442,10.648-.2,10.9,3.325-4.22,4.676-9.985S1094.932,193.686,1093.7,193.432Z" transform="translate(-643.041 -21.647)" fill="#ffffff" style="isolation: isolate"/>
    <path id="パス_18" data-name="パス 18" d="M1203.614,210.416c-.561-3.262-7.805,2.215-8.711,2.795a40.121,40.121,0,0,0,.708-5.585c0-5.252-1.244-9.507-2.79-9.507s-2.795,4.255-2.795,9.507c0,4.024.74,8.45,1.777,9.831a.021.021,0,0,0,.006.017.967.967,0,0,0,.292.312,1.093,1.093,0,0,0,.721.335.434.434,0,0,0,.076-.014C1194.518,218.41,1204.183,213.686,1203.614,210.416Z" transform="translate(-735.506 -25.902)" fill="#ffffff" style="isolation: isolate"/>
  </g>
</svg>
