<svg xmlns="http://www.w3.org/2000/svg" width="20" height="20" viewBox="0 0 20 20">
  <path id="np_earth_1586221_000000" d="M11.793,1.793a10,10,0,1,0,10,10,10.011,10.011,0,0,0-10-10Zm9.029,9.521H15.884A21.575,21.575,0,0,0,15.3,6.543,14.858,14.858,0,0,0,18.469,5.7a9.01,9.01,0,0,1,2.353,5.614Zm-9.029,9.415c-.8,0-1.652-1.072-2.266-2.885a21.928,21.928,0,0,1,2.266-.12,22.17,22.17,0,0,1,2.266.12C13.445,19.657,12.594,20.729,11.793,20.729Zm3.245-2.76a14.794,14.794,0,0,1,2.677.648,9.021,9.021,0,0,1-4.026,2.016,8.068,8.068,0,0,0,1.348-2.664ZM9.9,20.633a9.024,9.024,0,0,1-4.026-2.016,14.934,14.934,0,0,1,2.677-.648A8.039,8.039,0,0,0,9.9,20.633Zm1.9-3.868a22.6,22.6,0,0,0-2.543.146,20.3,20.3,0,0,1-.592-4.64h6.268a20.253,20.253,0,0,1-.592,4.64,22.578,22.578,0,0,0-2.542-.146ZM8.66,11.314a20.253,20.253,0,0,1,.592-4.64,22.8,22.8,0,0,0,2.543.146,22.6,22.6,0,0,0,2.543-.146,20.3,20.3,0,0,1,.592,4.64Zm3.133-8.457c.8,0,1.652,1.072,2.266,2.885a21.927,21.927,0,0,1-2.266.12,21.941,21.941,0,0,1-2.266-.12C10.141,3.929,10.992,2.857,11.793,2.857ZM8.548,5.617a14.811,14.811,0,0,1-2.677-.648A9.012,9.012,0,0,1,9.9,2.952,8.06,8.06,0,0,0,8.548,5.617Zm5.141-2.664a9.017,9.017,0,0,1,4.026,2.017,14.934,14.934,0,0,1-2.677.648,8.028,8.028,0,0,0-1.348-2.665ZM5.118,5.7a14.9,14.9,0,0,0,3.167.843A21.532,21.532,0,0,0,7.7,11.314H2.764A9.005,9.005,0,0,1,5.118,5.7ZM2.764,12.272H7.7a21.623,21.623,0,0,0,.582,4.771,14.858,14.858,0,0,0-3.167.843,9.007,9.007,0,0,1-2.354-5.614Zm15.7,5.614a14.891,14.891,0,0,0-3.167-.843,21.578,21.578,0,0,0,.582-4.771h4.939a9.005,9.005,0,0,1-2.354,5.614Z" transform="translate(-1.793 -1.793)" fill="#0027ff"/>
</svg>
