<svg xmlns="http://www.w3.org/2000/svg" width="144.391" height="25.867" viewBox="0 0 144.391 25.867">
  <g id="logo" transform="translate(-0.5 -1.2)">
    <g id="グループ_3" data-name="グループ 3" transform="translate(0.5 1.2)">
      <path id="パス_6" data-name="パス 6" d="M12.28,5.207c0-2.55,1.214-3.279,3.279-3.279H24.3c.85,0,1.943.121,1.943,1.822,0,1.336-.364,2.064-1.943,2.064H16.408a.644.644,0,0,0-.729.729V8.851h6.679c1.336,0,3.157.121,3.157,2.429a20.986,20.986,0,0,1-2.793,9.472,14.374,14.374,0,0,0,2.55,2.186,1.9,1.9,0,0,1,.85,1.579,2.283,2.283,0,0,1-2.186,2.307c-1.214,0-2.672-1.579-3.765-2.793a15.383,15.383,0,0,1-1.579,1.336c-1.7,1.457-2.186,1.457-2.55,1.457a2.232,2.232,0,0,1-2.064-2.55c-.243.729-.607,1.457-1.579,1.457a2.269,2.269,0,0,1-2.064-1.214v.729c0,.486,0,1.7-1.7,1.7-1.579,0-1.822-.85-1.822-1.7V18.08a.445.445,0,0,0-.486-.486H5.358a38.373,38.373,0,0,1-.85,6.8c-.243,1.093-.486,2.186-1.7,2.186C2.322,26.581.5,26.338.5,24.638a29.872,29.872,0,0,1,.85-3.522,22.194,22.194,0,0,0,.486-5.343V3.629c0-.486,0-1.7,1.7-1.7s1.822,1.093,1.822,1.7v4.25H7.179V2.9c0-.486,0-1.7,1.7-1.7s1.7,1.093,1.7,1.7V7.879c.486,0,1.457,0,1.457,1.7,0,1.579-.729,1.943-1.7,1.943H5.479v2.429h1.7c2.915,0,3.4.486,3.4,3.279v5.95a20.147,20.147,0,0,0,.729-1.943,25.054,25.054,0,0,0,.972-7.651V5.207Zm3.522,8.5a34.363,34.363,0,0,1-1.336,10.079,2.809,2.809,0,0,1,.85-.729,20.01,20.01,0,0,0,3.036-2.186c-1.214-2.307-2.429-5.343-2.429-6.315,0-1.214,1.336-1.579,1.943-1.579a1.245,1.245,0,0,1,1.336.972,21.9,21.9,0,0,0,1.336,3.522,16.174,16.174,0,0,0,1.457-4.493c0-.486-.486-.486-.607-.486H15.8Z" transform="translate(-0.5 -1.2)"/>
      <path id="パス_7" data-name="パス 7" d="M40.873,21.473c0,.972.607,1.093,1.579,1.093,1.7,0,1.943-.243,2.064-1.943.121-1.336.243-2.55,1.943-2.55.729,0,2.064.121,2.064,1.822,0,1.457-.243,4.129-1.093,5.343-.729,1.214-1.7,1.214-5.343,1.214s-5.343,0-5.343-3.279V13.458H33.587c-.121,3.765-.364,7.529-3.036,10.322a9.7,9.7,0,0,1-5.465,2.915c-1.457,0-1.943-1.457-1.943-2.429s.486-1.336,1.336-1.7c4.129-1.822,4.979-3.036,5.1-9.229H24.843A1.716,1.716,0,0,1,22.9,11.394a1.737,1.737,0,0,1,1.943-1.943H46.581a1.716,1.716,0,0,1,1.943,1.943,1.737,1.737,0,0,1-1.943,1.943H40.751v8.136ZM44.88,1.8a1.8,1.8,0,0,1,2.064,1.943A1.757,1.757,0,0,1,44.88,5.686H26.665A1.8,1.8,0,0,1,24.6,3.743,1.777,1.777,0,0,1,26.665,1.8H44.88Z" transform="translate(4.302 -1.071)"/>
    </g>
    <g id="グループ_4" data-name="グループ 4" transform="translate(59.155 6.908)">
      <path id="パス_8" data-name="パス 8" d="M52.686,24.237c0,.607,0,1.822-1.943,1.822-1.822,0-1.943-1.093-1.943-1.822V7.722c0-.607,0-1.822,1.943-1.822,1.822,0,1.943,1.093,1.943,1.822v3.643a46.519,46.519,0,0,1,8.622,3.522c1.457.729,1.943,1.214,1.943,2.064a2.126,2.126,0,0,1-1.943,2.186,3.2,3.2,0,0,1-1.822-.729,35.089,35.089,0,0,0-6.8-3.279Zm6.922-13.358c-.364,0-.486-.121-1.093-1.214-.121-.121-.486-.972-.607-1.093a1.32,1.32,0,0,1-.121-.607.812.812,0,0,1,.85-.729c.364,0,.607.243,1.093.972a6.349,6.349,0,0,1,.729,1.943C60.458,10.515,59.972,10.879,59.608,10.879Zm2.429-1.336c-.486,0-.486-.121-1.214-1.457a3.636,3.636,0,0,1-.486-.972.918.918,0,0,1-.121-.486.812.812,0,0,1,.85-.729c.486,0,.729.364,1.093.972a6.28,6.28,0,0,1,.85,1.943C63.008,9.3,62.523,9.543,62.037,9.543Z" transform="translate(-48.8 -5.9)"/>
      <path id="パス_9" data-name="パス 9" d="M64.7,11.688a22.87,22.87,0,0,1,1.457,4.372c0,1.214-1.336,1.579-1.943,1.579-1.093,0-1.336-.85-1.457-1.457a28.021,28.021,0,0,0-1.214-3.4,1.755,1.755,0,0,1-.243-.85c0-.85.729-1.457,1.943-1.457C64.093,10.473,64.457,11.081,64.7,11.688Zm9.715,7.651a14.3,14.3,0,0,1-9.229,5.829,1.708,1.708,0,0,1-1.579-1.822c0-.972.607-1.093,2.064-1.579,2.429-.729,6.558-2.186,8.015-8.865a11.248,11.248,0,0,1,.486-2.064,1.286,1.286,0,0,1,1.336-.729c.243,0,1.822,0,1.822,1.579A20.4,20.4,0,0,1,74.415,19.338Zm-4.372-8.5a22.206,22.206,0,0,1,1.214,4.372c0,1.336-1.457,1.579-1.822,1.579-1.214,0-1.336-.85-1.579-1.579-.243-.972-.486-2.064-.85-3.157a2.48,2.48,0,0,1-.243-1.093c0-1.457,1.7-1.457,2.064-1.457C69.436,9.38,69.8,10.352,70.044,10.838Z" transform="translate(-46.12 -5.13)"/>
      <path id="パス_10" data-name="パス 10" d="M80.186,24.237c0,.607,0,1.822-1.943,1.822-1.822,0-1.943-1.093-1.943-1.822V7.722c0-.607,0-1.822,1.943-1.822,1.822,0,1.943,1.093,1.943,1.822v3.643a46.52,46.52,0,0,1,8.622,3.522c1.457.729,1.943,1.214,1.943,2.064a2.126,2.126,0,0,1-1.943,2.186,3.2,3.2,0,0,1-1.822-.729,35.09,35.09,0,0,0-6.8-3.279Z" transform="translate(-42.904 -5.9)"/>
      <path id="パス_11" data-name="パス 11" d="M100.594,20.515a.7.7,0,0,0,.729-.729V11.529a.644.644,0,0,0-.729-.729H89.786a1.584,1.584,0,0,1-1.822-1.7c0-1.214.607-1.7,1.822-1.7h12.265c2.064,0,3.036.729,3.036,3.036V21c0,2.307-.972,3.036-3.036,3.036H89.422a1.651,1.651,0,0,1-1.822-1.7,1.61,1.61,0,0,1,1.822-1.822h11.172Z" transform="translate(-40.482 -5.578)"/>
      <path id="パス_12" data-name="パス 12" d="M115.88,16.829a2.975,2.975,0,0,1-.486-1.457c0-1.336,1.457-1.579,1.943-1.579.729,0,1.093.121,2.429,2.55.486.85,2.915,5.829,2.915,7.286,0,1.214-1.093,1.7-2.186,1.7a1.375,1.375,0,0,1-1.457-.85c-.121-.121-.121-.486-.486-1.457-5.222.85-10.929,1.457-11.9,1.457a2.232,2.232,0,0,1-2.55-2.307,9.34,9.34,0,0,1,.85-3.157c2.672-6.8,2.915-7.651,4.25-11.658A1.7,1.7,0,0,1,110.9,5.9c.729,0,2.307.364,2.307,1.7a8.324,8.324,0,0,1-.607,2.186c-.607,1.7-1.336,3.279-4.007,9.837a1.5,1.5,0,0,0-.243.85c0,.486.364.486.607.486a83.569,83.569,0,0,0,8.5-.85A26.548,26.548,0,0,0,115.88,16.829Z" transform="translate(-36.944 -5.9)"/>
    </g>
  </g>
</svg>
